<?xml version="1.0" encoding="UTF-8" standalone="no"?>
<svg
   xmlns:dc="http://purl.org/dc/elements/1.1/"
   xmlns:cc="http://creativecommons.org/ns#"
   xmlns:rdf="http://www.w3.org/1999/02/22-rdf-syntax-ns#"
   xmlns:svg="http://www.w3.org/2000/svg"
   xmlns="http://www.w3.org/2000/svg"
   xmlns:xlink="http://www.w3.org/1999/xlink"
   id="svg8"
   version="1.1"
   viewBox="0 0 247.44142 212.09264"
   height="8.3999996in"
   width="9.8000002in">
  <defs
     id="defs2" />
  <metadata
     id="metadata5">
    <rdf:RDF>
      <cc:Work
         rdf:about="">
        <dc:format>image/svg+xml</dc:format>
        <dc:type
           rdf:resource="http://purl.org/dc/dcmitype/StillImage" />
        <dc:title></dc:title>
      </cc:Work>
    </rdf:RDF>
  </metadata>
  <g
     transform="translate(35.004206,148.40925)"
     style="display:inline"
     id="layer2">
    <ellipse
       style="fill:#000000;stroke:#000000;stroke-width:2.86218715;stroke-miterlimit:4;stroke-dasharray:none;stroke-opacity:1"
       id="ellipse837"
       cx="76.300629"
       cy="-177.18764"
       rx="43.527725"
       ry="39.014065"
       transform="matrix(0.78745784,0.61636852,-0.58326372,0.81228286,0,0)" />
    <ellipse
       transform="matrix(-0.80491217,0.59339397,0.55958674,0.82877179,0,0)"
       ry="39.014065"
       rx="43.527725"
       cy="-71.407188"
       cx="-65.288376"
       id="ellipse2301"
       style="fill:#000000;stroke:#000000;stroke-width:2.86218715;stroke-miterlimit:4;stroke-dasharray:none;stroke-opacity:1" />
  </g>
  <g
     transform="translate(35.004206,148.40925)"
     style="display:none"
     id="layer6">
    <ellipse
       transform="rotate(-1.1773649)"
       ry="43.2822"
       rx="50.197716"
       cy="118.97859"
       cx="85.499146"
       id="path4648"
       style="fill:#ffffff;fill-opacity:1;stroke:#000000;stroke-width:1.84099996;stroke-miterlimit:4;stroke-dasharray:none;stroke-opacity:1" />
  </g>
  <g
     style="display:inline"
     transform="translate(35.004206,148.40925)"
     id="layer5">
    <path
       transform="matrix(2.3887018,0.03446394,-0.03114626,2.1587534,-112.28058,-511.8728)"
       d="m 121.83099,239.9965 c -7.98049,11.78072 -23.459314,19.292 -37.651962,18.27106 -14.192647,-1.02095 -28.437019,-10.67036 -34.649179,-23.47203 -6.212159,-12.80166 -4.977708,-29.96236 3.00278,-41.74308 7.980489,-11.78072 23.459312,-19.292 37.65196,-18.27106 14.192651,1.02095 28.437021,10.67036 34.649181,23.47203 6.21216,12.80166 4.97771,29.96236 -3.00278,41.74308 z"
       id="path854"
       style="fill:#ffffff;fill-opacity:1;stroke:#000000;stroke-width:1.75083375;stroke-miterlimit:4;stroke-dasharray:none;stroke-opacity:1" />
  </g>
  <g
     transform="translate(35.004206,148.40925)"
     style="display:none"
     id="layer3" />
  <g
     transform="translate(35.004206,148.40925)"
     style="display:inline"
     id="layer1">
    <circle
       transform="matrix(0.99989593,0.0144264,0.0144264,-0.99989593,0,0)"
       r="6.3227539"
       cy="57.327785"
       cx="119.57107"
       id="path3709"
       style="fill:#ffffff;stroke-width:0.52916664" />
    <ellipse
       transform="matrix(0.62789426,-0.77829866,0.75524668,0.65544066,0,0)"
       style="stroke-width:0.56600237"
       ry="36.315907"
       rx="30.461992"
       cy="77.822563"
       cx="128.44302"
       id="path3703" />
    <circle
       style="fill:#ffffff;stroke-width:0.52916664"
       id="circle3731"
       cx="122.43528"
       cy="49.299503"
       r="6.3227539"
       transform="matrix(0.99807178,-0.06207022,-0.06207022,-0.99807178,0,0)" />
    <ellipse
       transform="rotate(34.627784)"
       cx="3.2359118"
       cy="-60.149868"
       rx="30.033079"
       ry="36.751007"
       style="stroke-width:0.66585344"
       id="path3701" />
    <use
       height="100%"
       width="100%"
       transform="rotate(10.156752,92.184925,-413.8305)"
       id="use3744"
       xlink:href="#circle3731"
       y="0"
       x="0" />
    <path
       transform="matrix(1.9997919,0.02885279,-0.02885279,1.9997919,38.712562,-69.655995)"
       d="m 28.2882,25.012806 -4.235789,2.090487 -0.679241,4.674471 -3.297102,-3.382479 -4.655583,0.798495 2.198068,-4.180974 -2.198068,-4.180974 4.655583,0.798495 3.297102,-3.382479 0.679241,4.674471 z"
       id="path3746"
       style="fill:#ffffff;stroke-width:0.26458332" />
    <g
       transform="matrix(3.1326042,0.0451969,-0.04860324,3.3686992,-177.81112,-475.68402)"
       id="g35">
      <rect
         id="rect25"
         width="6.3739018"
         height="0.75353497"
         x="83.991531"
         y="134.40582"
         style="stroke-width:0.11907507"
         transform="matrix(0.99999954,9.6175605e-4,-9.5067387e-4,0.99999955,0,0)" />
      <path
         id="path31"
         d="m 90.230534,135.19321 a 3.1834683,2.5782104 0 0 1 -1.591734,2.23279 3.1834683,2.5782104 0 0 1 -3.183469,0 3.1834683,2.5782104 0 0 1 -1.591734,-2.23279 l 3.183469,0 z"
         style="stroke-width:0.31282771" />
    </g>
    <g
       transform="matrix(1.9997919,0.02885279,-0.02885279,1.9997919,-147.62891,-190.07992)"
       id="g946">
      <path
         style="fill:none;stroke:#000000;stroke-width:0.95926785;stroke-linecap:butt;stroke-linejoin:miter;stroke-miterlimit:4;stroke-dasharray:none;stroke-opacity:1"
         d="m 125.46471,103.12672 c 0.48711,-4.564451 3.22859,-5.071039 6.46635,-4.684306"
         id="path941" />
      <path
         style="fill:none;stroke:#000000;stroke-width:1.46500003;stroke-linecap:butt;stroke-linejoin:miter;stroke-miterlimit:4;stroke-dasharray:none;stroke-opacity:1"
         d="m 121.11981,98.170199 c 0,0 3.11635,-0.69597 4.41642,-1.52348 1.34698,-0.85741 3.26412,-3.4119 3.26412,-3.4119 0,0 6.81723,9.224271 3.70323,12.154851 -3.11404,2.93057 -11.38377,-7.219471 -11.38377,-7.219471 z"
         id="path4600" />
    </g>
  </g>
  <g
     transform="translate(35.004206,148.40925)"
     style="display:inline"
     id="layer4">
    <ellipse
       transform="matrix(0.87727761,-0.47998332,0.32810124,0.94464256,0,0)"
       ry="26.05336"
       rx="27.115625"
       cy="41.706154"
       cx="22.458549"
       id="path4640"
       style="fill:#000000;stroke:#000000;stroke-width:2.14004421;stroke-miterlimit:4;stroke-dasharray:none;stroke-opacity:1" />
    <ellipse
       style="fill:#000000;stroke:#000000;stroke-width:2.10468531;stroke-miterlimit:4;stroke-dasharray:none;stroke-opacity:1"
       id="ellipse4642"
       cx="7.9571958"
       cy="-155.5661"
       rx="28.241285"
       ry="24.195108"
       transform="matrix(-0.0144264,0.99989593,-0.99142203,-0.13069948,0,0)" />
  </g>
  <g
     transform="translate(35.004206,148.40925)"
     id="layer7" />
</svg>
